# xmcd
#
# Track frame offsets:
#	150
#	21232
#	45199
#	61339
#	81498
#	106072
#	122669
#	143560
#	162454
#	180412
#	204121
#	219520
#	239377
#	258972
#
# Disc length: 3680 seconds
#
# Revision: 1
# Processed by: cddbd v1.4PL0 Copyright (c) Steve Scherf et al.
# Submitted via: audiograbber 1.82.01
#
DISCID=b30e5e0e
DTITLE=MEMPHIS La Blusera - Lo Mejor
DYEAR=1998
DGENRE=
TTITLE0=Moscato, pizza y faina
TTITLE1=Lo mismo boogie
TTITLE2=Blues de las 6 y 30
TTITLE3=El Trepador
TTITLE4=Alma bajo la lluvia
TTITLE5=Nena seguí de largo
TTITLE6=La Bifurcada
TTITLE7=Montón de nada
TTITLE8=Boogie del preso
TTITLE9=Chau Catalana
TTITLE10=El amor en movimiento
TTITLE11=Tonto rompecabezas
TTITLE12=Blues de Rosario
TTITLE13=Sopa de Letras
EXTD=
EXTT0=
EXTT1=
EXTT2=
EXTT3=
EXTT4=
EXTT5=
EXTT6=
EXTT7=
EXTT8=
EXTT9=
EXTT10=
EXTT11=
EXTT12=
EXTT13=
PLAYORDER=
